<svg width="32" height="18" viewBox="0 0 32 18" fill="none" xmlns="http://www.w3.org/2000/svg">
<path fill-rule="evenodd" clip-rule="evenodd" d="M22.5274 0H22.523C22.1222 0.00288889 21.7987 0.325 21.7987 0.722222V13.689C21.7987 14.6467 22.182 15.5639 22.8655 16.2413C23.3172 16.6891 23.8754 17.0069 24.4816 17.1716C24.0867 17.2553 23.6757 17.3001 23.256 17.3001C20.0368 17.3001 17.4267 14.7131 17.4267 11.5223V0.722222C17.4267 0.325 17.1032 0.00288889 16.7024 0H16.6981H22.5274ZM32 0C30.3969 0 29.0955 1.28411 29.0853 2.87011V2.88889C29.0853 1.3 27.7898 0.0101111 26.1896 0H26.1707H32Z" fill="black"/>
<path fill-rule="evenodd" clip-rule="evenodd" d="M13.54 16.6111C13.7178 17.0228 14.1098 17.3333 14.5121 17.3333H8.31842C8.72065 17.3333 9.15056 17.1499 9.02668 16.6111L6.16304 8.05567C6.01585 7.72056 5.69232 7.42011 5.35713 7.71767L5.80162 6.40178L7.95409 0L13.54 16.6111ZM5.01758 17.3333H0C1.40049 17.3333 2.48329 16.3728 2.88405 15.0742C2.88114 15.1204 2.87968 15.1681 2.87968 15.2158C2.87968 16.3843 3.83714 17.3333 5.01758 17.3333Z" fill="black"/>
</svg>
